<svg width="713" height="480" viewBox="0 0 713 480" fill="none" xmlns="http://www.w3.org/2000/svg">
<path d="M358.5 135C227.972 151.281 154.446 117.326 91.0001 149.5C10.8819 190.164 9.78715 252.115 60.8074 334.371C107.18 409.122 215.513 441.66 312.199 432.784C430.767 421.9 505.217 351.179 542.806 315.472C662.039 202.297 688.657 97.0001 606 60.0002C558.318 38.6561 526.13 114.056 358.5 135Z" fill="url(#paint0_linear)"/>
<path d="M243.654 408.048H248.03L238.689 246.886H234.314L243.654 408.048Z" fill="#9D9D9D"/>
<path d="M457.394 408.048H461.769L452.429 246.886H448.053L457.394 408.048Z" fill="#9D9D9D"/>
<path d="M215.829 408.048H211.454L220.795 246.886H225.17L215.829 408.048Z" fill="#9D9D9D"/>
<path d="M429.569 408.048H425.194L434.534 246.886H438.909L429.569 408.048Z" fill="#9D9D9D"/>
<g opacity="0.2">
<path opacity="0.2" d="M261.746 258.316H249.173V369.781L241.172 372.238V376.044H269.747V372.238L261.746 369.781V258.316Z" fill="white"/>
</g>
<path d="M460.626 243.029V49.5767C460.626 46.8152 458.388 44.5767 455.626 44.5767L215.311 44.5767C212.55 44.5767 210.311 46.8152 210.311 49.5767V243.029C210.311 245.791 212.55 248.029 215.311 248.029L455.626 248.029C458.388 248.029 460.626 245.791 460.626 243.029Z" fill="#2E353A"/>
<path d="M450.06 50.2229H220.877C218.116 50.2229 215.877 52.4615 215.877 55.2229V237.268C215.877 240.03 218.116 242.268 220.877 242.268H450.06C452.821 242.268 455.06 240.03 455.06 237.268V55.2229C455.06 52.4615 452.821 50.2229 450.06 50.2229Z" fill="#F9F8FF"/>
<g opacity="0.4">
<path d="M402.923 80.8203C403.342 80.8203 403.71 80.9313 404.027 81.1534C404.351 81.3756 404.598 81.6739 404.77 82.0483C404.941 82.4164 405.027 82.8162 405.027 83.2478C405.027 83.692 404.931 84.1014 404.741 84.4758C404.557 84.8439 404.303 85.1358 403.979 85.3516C403.662 85.5674 403.31 85.6753 402.923 85.6753C402.637 85.6753 402.361 85.6182 402.095 85.5039C401.828 85.3833 401.622 85.2183 401.476 85.0089L401.381 85.5801H400.619V78.4403H401.476V81.4581C401.647 81.2613 401.86 81.1058 402.114 80.9916C402.374 80.8774 402.644 80.8203 402.923 80.8203ZM402.818 84.9137C403.218 84.9137 403.538 84.755 403.78 84.4377C404.027 84.1141 404.151 83.7174 404.151 83.2478C404.151 82.7654 404.027 82.3688 403.78 82.0578C403.538 81.7405 403.218 81.5818 402.818 81.5818C402.425 81.5818 402.095 81.7278 401.828 82.0197C401.561 82.3053 401.428 82.7147 401.428 83.2478C401.428 83.7999 401.558 84.2156 401.819 84.4948C402.085 84.7741 402.418 84.9137 402.818 84.9137Z" fill="#263238"/>
<path d="M366.558 118.437V114.185H362.306" stroke="#263238" stroke-width="0.793303" stroke-miterlimit="10"/>
<path d="M362.329 69.7222V117.728H438.91L362.329 69.7222Z" stroke="#263238" stroke-miterlimit="10"/>
<path d="M394.278 127.132C393.77 127.132 393.332 127.027 392.964 126.818C392.603 126.608 392.33 126.323 392.146 125.961C391.962 125.593 391.87 125.184 391.87 124.733C391.87 123.997 392.076 123.404 392.488 122.953C392.907 122.502 393.526 122.277 394.345 122.277C394.827 122.277 395.252 122.369 395.62 122.553L395.487 123.305C395.1 123.127 394.713 123.039 394.326 123.039C393.818 123.039 393.428 123.185 393.155 123.477C392.882 123.762 392.745 124.168 392.745 124.695C392.745 125.222 392.875 125.634 393.136 125.933C393.402 126.231 393.793 126.38 394.307 126.38C394.719 126.38 395.116 126.285 395.497 126.094L395.611 126.78C395.471 126.875 395.278 126.958 395.03 127.027C394.789 127.097 394.538 127.132 394.278 127.132Z" fill="#263238"/>
<path d="M354.851 95.7112C354.419 95.7112 354.07 95.5842 353.804 95.3304C353.544 95.0765 353.414 94.7529 353.414 94.3594C353.414 93.7692 353.693 93.3471 354.251 93.0933C354.81 92.8394 355.46 92.7061 356.203 92.6934C356.203 92.2746 356.12 91.9922 355.955 91.8462C355.797 91.6939 355.54 91.6177 355.184 91.6177C354.987 91.6177 354.791 91.6494 354.594 91.7129C354.397 91.77 354.185 91.8779 353.956 92.0366L353.832 91.3416C354.023 91.1957 354.258 91.0783 354.537 90.9894C354.816 90.9006 355.108 90.8561 355.413 90.8561C355.812 90.8561 356.13 90.926 356.365 91.0656C356.606 91.2052 356.78 91.4368 356.888 91.7605C357.002 92.0842 357.06 92.5284 357.06 93.0933V94.0452C357.06 94.2991 357.069 94.4926 357.088 94.6259C357.113 94.7529 357.164 94.8512 357.24 94.921C357.317 94.9908 357.434 95.0257 357.593 95.0257H357.678L357.545 95.7112H357.478C357.212 95.7112 357.002 95.6858 356.85 95.635C356.698 95.5842 356.58 95.5113 356.498 95.4161C356.422 95.3209 356.349 95.1908 356.279 95.0257C355.885 95.4827 355.409 95.7112 354.851 95.7112ZM355.013 95.0257C355.241 95.0257 355.46 94.9686 355.67 94.8544C355.885 94.7402 356.063 94.5878 356.203 94.3975V93.2837C355.517 93.309 355.026 93.4011 354.727 93.5597C354.435 93.712 354.289 93.9627 354.289 94.3118C354.289 94.5529 354.353 94.7338 354.48 94.8544C354.613 94.9686 354.791 95.0257 355.013 95.0257Z" fill="#263238"/>
<path d="M285.749 177.164H316.61" stroke="#263238" stroke-miterlimit="10"/>
<path d="M285.749 186.308H302.893" stroke="#263238" stroke-miterlimit="10"/>
<path d="M285.749 193.166H309.751" stroke="#263238" stroke-miterlimit="10"/>
<path d="M285.749 201.167H306.322" stroke="#263238" stroke-miterlimit="10"/>
<path d="M354.917 181.381C355.336 181.381 355.704 181.492 356.021 181.714C356.345 181.936 356.592 182.234 356.764 182.609C356.935 182.977 357.021 183.377 357.021 183.808C357.021 184.253 356.926 184.662 356.735 185.036C356.551 185.404 356.297 185.696 355.974 185.912C355.656 186.128 355.304 186.236 354.917 186.236C354.631 186.236 354.355 186.179 354.089 186.064C353.822 185.944 353.616 185.779 353.47 185.569L353.375 186.141H352.613V179.001H353.47V182.019C353.641 181.822 353.854 181.666 354.108 181.552C354.368 181.438 354.638 181.381 354.917 181.381ZM354.812 185.474C355.212 185.474 355.533 185.316 355.774 184.998C356.021 184.675 356.145 184.278 356.145 183.808C356.145 183.326 356.021 182.929 355.774 182.618C355.533 182.301 355.212 182.142 354.812 182.142C354.419 182.142 354.089 182.288 353.822 182.58C353.556 182.866 353.422 183.275 353.422 183.808C353.422 184.36 353.552 184.776 353.813 185.055C354.079 185.335 354.412 185.474 354.812 185.474Z" fill="#263238"/>
<path d="M354.765 202.204C354.257 202.204 353.819 202.099 353.451 201.889C353.089 201.68 352.816 201.394 352.632 201.033C352.448 200.665 352.356 200.255 352.356 199.805C352.356 199.068 352.562 198.475 352.975 198.024C353.394 197.574 354.013 197.349 354.831 197.349C355.314 197.349 355.739 197.441 356.107 197.625L355.974 198.377C355.586 198.199 355.199 198.11 354.812 198.11C354.304 198.11 353.914 198.256 353.641 198.548C353.368 198.834 353.232 199.24 353.232 199.767C353.232 200.293 353.362 200.706 353.622 201.004C353.889 201.302 354.279 201.452 354.793 201.452C355.206 201.452 355.602 201.356 355.983 201.166L356.097 201.851C355.958 201.947 355.764 202.029 355.517 202.099C355.275 202.169 355.025 202.204 354.765 202.204Z" fill="#263238"/>
<path d="M353.708 170.257C353.276 170.257 352.927 170.13 352.661 169.876C352.401 169.622 352.27 169.299 352.27 168.905C352.27 168.315 352.55 167.893 353.108 167.639C353.667 167.385 354.317 167.252 355.06 167.239C355.06 166.82 354.977 166.538 354.812 166.392C354.654 166.24 354.397 166.163 354.041 166.163C353.844 166.163 353.648 166.195 353.451 166.259C353.254 166.316 353.042 166.424 352.813 166.582L352.689 165.887C352.88 165.741 353.115 165.624 353.394 165.535C353.673 165.446 353.965 165.402 354.27 165.402C354.669 165.402 354.987 165.472 355.222 165.611C355.463 165.751 355.637 165.982 355.745 166.306C355.859 166.63 355.916 167.074 355.916 167.639V168.591C355.916 168.845 355.926 169.038 355.945 169.172C355.97 169.299 356.021 169.397 356.097 169.467C356.174 169.536 356.291 169.571 356.45 169.571H356.535L356.402 170.257H356.335C356.069 170.257 355.859 170.231 355.707 170.181C355.555 170.13 355.437 170.057 355.355 169.962C355.279 169.867 355.206 169.736 355.136 169.571C354.742 170.028 354.266 170.257 353.708 170.257ZM353.87 169.571C354.098 169.571 354.317 169.514 354.527 169.4C354.742 169.286 354.92 169.133 355.06 168.943V167.829C354.374 167.855 353.882 167.947 353.584 168.105C353.292 168.258 353.146 168.508 353.146 168.857C353.146 169.099 353.21 169.279 353.337 169.4C353.47 169.514 353.648 169.571 353.87 169.571Z" fill="#263238"/>
<path d="M370.536 172.397H436.829" stroke="#263238" stroke-miterlimit="10"/>
<path d="M370.536 187.256H436.829" stroke="#263238" stroke-miterlimit="10"/>
<path d="M370.536 202.115H436.829" stroke="#263238" stroke-miterlimit="10"/>
<path d="M257.459 209.807C268.98 209.807 278.319 200.468 278.319 188.948C278.319 177.427 268.98 168.088 257.459 168.088C245.939 168.088 236.6 177.427 236.6 188.948C236.6 200.468 245.939 209.807 257.459 209.807Z" stroke="#263238" stroke-width="0.793303" stroke-miterlimit="10"/>
<path d="M257.494 168.02V189.165H278.639" stroke="#263238" stroke-miterlimit="10"/>
</g>
<path d="M494.048 153.87L476.4 143.583C473.586 143.793 470.758 143.662 467.976 143.194C463.404 142.405 462.421 142.36 462.97 138.759C463.518 135.159 462.752 130.358 464.113 129.855C465.473 129.352 475.097 133.41 476.766 136.165L494.573 142.531L494.048 153.87Z" fill="#B97964"/>
<path d="M546.328 136.439V157.013C546.328 157.013 541.939 158.464 536.487 159.984C530.235 161.722 522.588 163.551 518.61 163.413C511.181 163.048 486.035 149.995 486.035 149.995L490.607 141.285C490.607 141.285 518.039 150.635 521.468 149.96C524.897 149.286 546.328 136.439 546.328 136.439Z" fill="#FFB864"/>
<path opacity="0.2" d="M546.328 146.463V157.024C546.328 157.024 541.939 158.476 536.487 159.996C538.498 153.869 543.516 148.875 546.328 146.463Z" fill="black"/>
<path d="M550.9 209.67C550.9 209.67 538.51 275.69 535.207 302.801C530.886 338.166 513.227 389.897 513.227 389.897L520.291 391.726C520.291 391.726 545.185 347.767 550.008 308.208C569.782 267.78 571.371 217.991 571.371 217.991L550.9 209.67Z" fill="#B97964"/>
<path d="M500.128 405.899C501.269 405.374 502.498 405.064 503.752 404.985C503.752 404.985 508.095 402.425 512.404 392.503H517.239C518.056 392.515 518.85 392.776 519.514 393.252C520.178 393.728 520.68 394.396 520.954 395.167C521.033 395.383 521.079 395.611 521.091 395.841C521.041 396.99 520.918 398.136 520.725 399.27C520.008 403.133 519.062 406.95 517.89 410.7L517.067 410.483L518.565 403.27C519.056 400.813 516.484 403.179 515.284 405.659C514.084 408.14 512.255 410.62 506.918 409.397C500.688 407.922 498.174 407.019 500.128 405.899Z" fill="#2E353A"/>
<path d="M563.804 208.619C563.804 208.619 565.347 275.77 567.725 302.984C570.811 338.474 564.227 392.744 564.227 392.744L571.52 393.064C571.52 393.064 586.779 344.909 583.35 305.202C594.334 261.551 585.636 212.516 585.636 212.516L563.804 208.619Z" fill="#B97964"/>
<path d="M552.889 408.117C553.968 407.468 555.157 407.022 556.398 406.802C556.398 406.802 560.444 403.796 563.644 393.464L568.456 392.915C569.274 392.837 570.097 393.015 570.809 393.425C571.522 393.834 572.09 394.455 572.434 395.201C572.536 395.406 572.606 395.626 572.64 395.853C572.714 397.021 572.714 398.193 572.64 399.362C572.347 403.264 571.821 407.146 571.062 410.986L570.217 410.86L570.925 403.522C571.154 401.03 568.845 403.671 567.919 406.254C566.993 408.837 565.45 411.512 559.998 410.883C553.666 410.06 551.071 409.443 552.889 408.117Z" fill="#2E353A"/>
<path d="M588.424 94.3882C588.424 94.3882 592.048 94.5825 595.099 100.537C598.151 106.492 594.334 113.11 593.568 116.276C592.802 119.443 588.996 122.243 595.282 127.032C601.569 131.821 605.341 136.907 600.243 142.085C595.145 147.263 600.746 151.229 593.385 155.07C586.024 158.91 558.901 153.161 555.472 145.731C552.043 138.302 556.181 132.656 556.398 130.438C556.615 128.221 552.043 125.946 550.9 118.688C549.757 111.43 555.609 109.876 556.398 106.561C557.186 103.246 553.517 99.063 556.398 92.0107C559.278 84.9585 588.036 83.4383 588.424 94.3882Z" fill="#2E353A"/>
<path d="M606.678 193.269C602.346 193.829 597.34 185.37 593.717 177.484C590.619 170.797 588.459 164.511 588.459 164.511L590.745 158.064L596.711 141.24C596.711 141.24 600.883 147.057 607.158 169.209C608.164 172.775 609.376 176.764 610.484 181.221C610.476 182.348 610.824 183.448 611.479 184.365C611.479 187.714 611.879 192.594 606.678 193.269Z" fill="#FFB864"/>
<path opacity="0.2" d="M593.636 177.484C590.55 170.797 588.424 164.511 588.424 164.511L590.71 158.064C592.31 162.522 594.654 170.603 593.636 177.484Z" fill="black"/>
<path opacity="0.2" d="M611.479 184.365C609.193 185.873 606.804 185.85 605.466 183.096C602.758 177.529 605.375 172.02 607.227 169.197C608.244 172.763 609.41 176.752 610.518 181.21C610.482 182.339 610.819 183.448 611.479 184.365Z" fill="black"/>
<path d="M543.288 191.074C543.288 191.074 566.147 199.258 587.933 197.737C587.933 197.737 585.956 170.763 574.526 165.962C563.096 161.162 543.288 168.02 543.288 191.074Z" fill="#FFB864"/>
<path opacity="0.2" d="M543.288 191.074C543.288 191.074 566.147 199.258 587.933 197.737C587.933 197.737 585.956 170.763 574.526 165.962C563.096 161.162 543.288 168.02 543.288 191.074Z" fill="black"/>
<path d="M546.522 192.994L584.241 196.252C584.608 186.902 585.953 177.616 588.253 168.545C589.156 164.934 590.287 160.899 591.739 156.235C592.516 153.744 593.374 151.069 594.334 148.235C595.054 146.051 595.831 143.731 596.688 141.285C591.566 139.65 586.333 138.385 581.029 137.502C575.432 136.508 569.772 135.912 564.09 135.719C556.752 135.719 548.317 136.485 548.317 136.485C548.317 136.485 547.117 136.77 546.362 144.554C545.688 151.812 545.014 166.42 546.522 192.994Z" fill="#FFB864"/>
<path d="M546.705 198.652L584.424 201.761C585.018 192.388 585.464 179.724 588.287 168.545C589.19 164.934 590.322 160.899 591.773 156.235C592.551 153.744 593.408 151.069 594.368 148.235C595.088 146.051 595.865 143.731 596.723 141.285C591.6 139.65 586.367 138.385 581.064 137.502C575.466 136.508 569.806 135.912 564.124 135.719C556.786 135.719 548.351 136.485 548.351 136.485C548.351 136.485 547.151 136.77 546.397 144.554C545.688 151.812 545.185 172.077 546.705 198.652Z" fill="#2E353A"/>
<path d="M567.21 144.017C576.514 142.874 579.303 138.85 579.303 138.85C573.405 133.284 578.309 123.637 578.309 123.637L567.119 125.729C567.382 127.289 567.527 128.867 567.553 130.449C567.645 137.239 564.57 137.307 564.57 137.307C562.604 140.976 567.21 144.017 567.21 144.017Z" fill="#B97964"/>
<path opacity="0.2" d="M567.119 125.729C567.382 127.289 567.527 128.867 567.553 130.45C575.109 130.45 578.309 123.592 578.309 123.592L567.119 125.729Z" fill="black"/>
<path d="M573.303 94.4226C563.576 93.8968 560.158 98.9374 558.901 108.916C557.324 121.397 559.61 130.45 571.92 128.438C588.619 125.729 589.465 95.3141 573.303 94.4226Z" fill="#B97964"/>
<path d="M583.041 111.407C583.041 111.407 578.926 103.166 579.955 97.0285C579.955 97.0285 561.107 88.1017 559.084 107.613C559.084 107.613 558.147 90.1362 574.891 90.662C591.636 91.1878 590.23 115.659 581.189 122.471C581.189 122.471 585.578 116.585 583.041 111.407Z" fill="#2E353A"/>
<path d="M581.338 113.373C581.414 112.818 581.598 112.282 581.881 111.798C582.164 111.314 582.54 110.891 582.987 110.552C583.434 110.213 583.944 109.966 584.486 109.824C585.029 109.683 585.594 109.65 586.15 109.727C589.144 110.219 590.242 116.482 582.721 117.568C581.566 117.728 581.018 116.585 581.338 113.373Z" fill="#B97964"/>
<path d="M587.933 139.879C587.933 139.879 577.006 148.737 566.902 148.589C556.798 148.44 553.186 137.022 553.186 137.022C553.186 137.022 568.879 132.347 587.933 139.879Z" fill="#B97964"/>
<path d="M586.996 138.21C586.996 138.21 569.074 170.306 587.933 197.737C587.933 197.737 590.493 163.894 596.7 141.239L586.996 138.21Z" fill="#FFB864"/>
<path d="M554.112 135.673C554.112 135.673 553.952 158.384 550.683 166.82C547.414 175.255 543.265 191.074 543.265 191.074C543.265 191.074 540.11 153.241 546.305 136.439L554.112 135.673Z" fill="#FFB864"/>
<path d="M637.482 131.581L634.487 129.867L623.48 132.873L608.621 129.021L605.192 140.302C605.192 140.302 604.483 152.875 605.192 153.024C605.901 153.172 622.2 154.018 622.2 154.018L630.487 148.737L637.482 131.581Z" fill="#E0E0E0"/>
<path d="M604.621 129.866L598.048 155.892L618.336 158.167L632.338 154.304L639.482 129.866L623.48 134.016L604.621 129.866Z" fill="#FFB864"/>
<path opacity="0.4" d="M623.48 134.016L618.336 158.167L598.048 155.892L604.621 129.866L623.48 134.016Z" fill="white"/>
<path opacity="0.2" d="M623.48 134.016L618.337 158.167L632.338 154.304L639.482 129.866L623.48 134.016Z" fill="white"/>
<path d="M605.672 181.736L615.102 163.631C614.76 160.829 614.76 157.997 615.102 155.196C615.673 150.624 615.673 149.606 619.285 149.983C622.897 150.361 627.675 149.378 628.246 150.715C628.818 152.052 625.195 161.848 622.531 163.642L616.988 181.736H605.672Z" fill="#B97964"/>
<path d="M602.62 191.68C608.621 196.789 615.479 192.4 619.285 177.735L607.478 176.215L602.62 191.68Z" fill="#FFB864"/>
<path d="M608.084 172.992L605.672 177.244L620.623 179.256V174.878L608.084 172.992Z" fill="#2E353A"/>
<path d="M485.429 151.046L489.567 153.652L492.276 138.816L487.898 138.611L485.429 151.046Z" fill="#2E353A"/>
<path d="M546.705 198.652L522.931 338.326C522.931 338.326 580.469 345.184 599.969 341.183C599.969 341.183 604.758 241.194 584.401 201.738L546.705 198.652Z" fill="#FFB864"/>
<path opacity="0.4" d="M546.705 198.652L522.931 338.326C522.931 338.326 580.469 345.184 599.969 341.183C599.969 341.183 604.758 241.194 584.401 201.738L546.705 198.652Z" fill="white"/>
<path d="M469.508 137.25L463.587 131.135C460.055 127.444 455.254 122.609 450.488 117.751L443.436 110.664L437.275 104.481L432.92 100.115C432.395 99.5888 431.972 99.1773 431.697 98.8916C431.578 98.8261 431.446 98.7862 431.31 98.7744C431.174 98.7626 431.038 98.7792 430.909 98.823L432.52 97.2C432.476 97.329 432.46 97.4657 432.472 97.6015C432.483 97.7373 432.523 97.8691 432.589 97.9886L433.823 99.2116L438.212 103.544L444.407 109.681L451.54 116.699C456.42 121.443 461.278 126.221 464.981 129.741L471.131 135.627L469.508 137.25Z" fill="#2E353A"/>
<path d="M513.273 389.897C513.273 389.897 507.238 402.539 503.751 404.985C503.751 404.985 508.415 407.762 513.273 401.556C519.559 393.555 521.091 395.841 521.091 395.841C520.966 394.461 520.713 393.094 520.336 391.761C519.388 389.143 513.273 389.897 513.273 389.897Z" fill="#B97964"/>
<path d="M564.97 389.76C564.97 389.76 563.256 394.447 560.97 399.59C559.923 402.255 558.37 404.692 556.398 406.768C556.398 406.768 560.375 408.06 562.513 405.568C564.65 403.076 568.319 394.138 572.434 395.121C572.215 394.389 571.908 393.687 571.52 393.029C570.902 392.046 564.97 389.76 564.97 389.76Z" fill="#B97964"/>
<path d="M190.331 411.478L191.269 269.461H181.976L182.902 411.478H190.331Z" fill="#9D9D9D"/>
<path opacity="0.5" d="M182.902 411.477H190.343L191.086 298.013L191.269 269.746H181.976L182.159 298.013L182.902 411.477Z" fill="white"/>
<path opacity="0.2" d="M191.269 269.746L191.086 298.321H182.159L181.976 269.746H191.269Z" fill="black"/>
<path d="M262.511 411.478L254.168 269.461H244.875L255.082 411.478H262.511Z" fill="#9D9D9D"/>
<path opacity="0.5" d="M255.07 411.477H262.511L254.67 278.17L254.168 269.746H244.875L245.492 278.17L255.07 411.477Z" fill="white"/>
<path opacity="0.2" d="M254.67 277.747H245.492L244.875 269.746H254.168L254.67 277.747Z" fill="black"/>
<path d="M118.163 411.478L128.359 269.461H119.066L110.722 411.478H118.163Z" fill="#9D9D9D"/>
<path opacity="0.3" d="M118.163 411.477L127.741 278.17L128.359 269.746H119.066L118.563 278.17L110.722 411.477H118.163Z" fill="white"/>
<path opacity="0.2" d="M119.066 269.746H128.358L127.741 277.747H118.563L119.066 269.746Z" fill="black"/>
<path d="M111.705 265.083H261.529V271.381C261.529 271.705 261.465 272.026 261.341 272.326C261.217 272.625 261.035 272.897 260.805 273.127C260.576 273.356 260.304 273.538 260.004 273.662C259.705 273.786 259.384 273.85 259.06 273.85H114.174C113.85 273.85 113.529 273.786 113.229 273.662C112.93 273.538 112.657 273.356 112.428 273.127C112.199 272.897 112.017 272.625 111.893 272.326C111.769 272.026 111.705 271.705 111.705 271.381V265.083Z" fill="#9D9D9D"/>
<path opacity="0.4" d="M111.705 265.083H261.529V271.381C261.529 271.705 261.465 272.026 261.341 272.326C261.217 272.625 261.035 272.897 260.805 273.127C260.576 273.356 260.304 273.538 260.004 273.662C259.705 273.786 259.384 273.85 259.06 273.85H114.174C113.85 273.85 113.529 273.786 113.229 273.662C112.93 273.538 112.657 273.356 112.428 273.127C112.199 272.897 112.017 272.625 111.893 272.326C111.769 272.026 111.705 271.705 111.705 271.381V265.083Z" fill="white"/>
<path opacity="0.2" d="M261.529 265.083H111.705V269.472H261.529V265.083Z" fill="black"/>
<path d="M265.872 266.226H107.362C106.706 266.223 106.078 265.96 105.615 265.495C105.153 265.03 104.893 264.401 104.893 263.745C104.893 263.091 105.153 262.463 105.616 262C106.079 261.537 106.707 261.277 107.362 261.277H265.872C266.527 261.277 267.155 261.537 267.618 262C268.081 262.463 268.341 263.091 268.341 263.745C268.341 264.401 268.081 265.03 267.618 265.495C267.156 265.96 266.528 266.223 265.872 266.226Z" fill="#9D9D9D"/>
<path opacity="0.4" d="M265.872 266.226H107.362C106.706 266.223 106.078 265.96 105.615 265.495C105.153 265.03 104.893 264.401 104.893 263.745C104.893 263.091 105.153 262.463 105.616 262C106.079 261.537 106.707 261.277 107.362 261.277H265.872C266.527 261.277 267.155 261.537 267.618 262C268.081 262.463 268.341 263.091 268.341 263.745C268.341 264.401 268.081 265.03 267.618 265.495C267.156 265.96 266.528 266.223 265.872 266.226Z" fill="white"/>
<path d="M178.021 265.083V269.941C178.021 270.454 178.123 270.962 178.319 271.437C178.515 271.911 178.803 272.342 179.166 272.705C179.529 273.068 179.96 273.356 180.435 273.552C180.909 273.749 181.417 273.85 181.931 273.85H260.191C260.847 273.85 261.476 273.59 261.941 273.127C262.406 272.665 262.668 272.037 262.672 271.381V265.083H178.021Z" fill="#9D9D9D"/>
<path opacity="0.6" d="M178.021 265.083V269.941C178.021 270.454 178.123 270.962 178.319 271.437C178.515 271.911 178.803 272.342 179.166 272.705C179.529 273.068 179.96 273.356 180.435 273.552C180.909 273.749 181.417 273.85 181.931 273.85H260.191C260.847 273.85 261.476 273.59 261.941 273.127C262.406 272.665 262.668 272.037 262.672 271.381V265.083H178.021Z" fill="white"/>
<path opacity="0.2" d="M262.672 265.083H178.021V269.472H262.672V265.083Z" fill="black"/>
<path d="M266.866 261.277H175.918C175.262 261.277 174.633 261.537 174.168 261.999C173.704 262.462 173.441 263.09 173.438 263.746C173.438 264.403 173.699 265.034 174.164 265.5C174.63 265.965 175.26 266.226 175.918 266.226H267.003C267.35 266.226 267.693 266.154 268.009 266.013C268.326 265.872 268.61 265.666 268.841 265.408C269.073 265.151 269.248 264.847 269.355 264.517C269.462 264.187 269.498 263.839 269.461 263.494C269.374 262.871 269.062 262.302 268.584 261.893C268.106 261.484 267.495 261.265 266.866 261.277Z" fill="#9D9D9D"/>
<path opacity="0.6" d="M266.866 261.277H175.918C175.262 261.277 174.633 261.537 174.168 261.999C173.704 262.462 173.441 263.09 173.438 263.746C173.438 264.403 173.699 265.034 174.164 265.5C174.63 265.965 175.26 266.226 175.918 266.226H267.003C267.35 266.226 267.693 266.154 268.009 266.013C268.326 265.872 268.61 265.666 268.841 265.408C269.073 265.151 269.248 264.847 269.355 264.517C269.462 264.187 269.498 263.839 269.461 263.494C269.374 262.871 269.062 262.302 268.584 261.893C268.106 261.484 267.495 261.265 266.866 261.277Z" fill="white"/>
<path d="M196.092 240.771L186.091 259.242" stroke="#2E353A" stroke-width="2" stroke-miterlimit="10"/>
<path d="M101.875 220.598C101.875 220.598 110.905 204.516 112.391 201.372C113.877 198.229 117.877 176.078 117.877 176.078C117.511 175.016 117.269 173.915 117.157 172.798C117.157 171.655 117.877 166.363 117.877 166.363C117.877 166.363 117.877 165.94 120.735 165.082C123.592 164.225 126.736 163.082 127.021 164.362C127.307 165.643 126.587 174.512 125.73 175.369C125.063 176.084 124.452 176.848 123.901 177.655C123.901 177.655 121.489 201.27 120.392 204.744C119.295 208.219 110.299 226.816 110.299 226.816L101.875 220.598Z" fill="#E4897B"/>
<path d="M144.017 240.531C144.017 240.531 166.534 250.316 169.792 251.459C173.049 252.601 182.833 252.83 182.833 252.83C183.863 252.378 184.94 252.044 186.045 251.836C187.188 251.733 192.503 251.996 192.503 251.996C192.503 251.996 192.937 251.996 194.035 254.739C195.132 257.482 196.538 260.545 195.281 260.934C194.023 261.323 185.142 261.38 184.216 260.602L183.291 259.814C183.291 259.814 170.718 262.808 167.174 262.02C163.631 261.231 138.6 254.019 138.6 254.019L144.017 240.531Z" fill="#E4897B"/>
<path d="M113.923 223.375C113.115 227.388 111.424 231.171 108.973 234.451C104.15 241.309 97.3492 245.766 95.509 238.714C92.7087 228.061 104.584 214.711 104.584 214.711L113.923 223.375Z" fill="#A2D1F2"/>
<path opacity="0.2" d="M113.923 223.375C113.115 227.388 111.424 231.171 108.973 234.451C108.43 233.916 108.011 233.268 107.746 232.553C107.481 231.838 107.377 231.073 107.442 230.313C108.105 225.547 113.923 223.375 113.923 223.375Z" fill="black"/>
<path d="M137.846 215.386C137.202 217.731 135.891 219.839 134.074 221.455C131.383 223.866 127.914 225.23 124.301 225.295C120.728 225.382 117.259 224.093 114.608 221.695C109.362 216.963 109.522 211.522 108.893 202.264C108.265 193.006 118.323 185.965 128.507 189.691C138.691 193.417 140.131 207.076 137.846 215.386Z" fill="#E4897B"/>
<path d="M125.33 183.771C125.33 183.771 132.451 181.164 137.446 185.314C142.44 189.463 142.166 199.452 137.446 204.173C137.446 204.173 138.737 202.458 135.022 198.309C131.308 194.16 125.33 183.771 125.33 183.771Z" fill="#2E353A"/>
<path opacity="0.2" d="M134.073 221.455C131.382 223.866 127.914 225.23 124.301 225.295C124.971 223.748 126.059 222.418 127.444 221.455C129.593 222.552 132.256 222.038 134.073 221.455Z" fill="black"/>
<path d="M135.902 372.901L134.691 380.479L133.582 387.474H123.444L124.324 378.525L125.158 369.952L135.902 372.901Z" fill="#E4897B"/>
<path d="M133.01 383.509L122.724 382.857C122.638 382.847 122.551 382.855 122.469 382.879C122.386 382.904 122.309 382.944 122.242 382.998C122.175 383.052 122.119 383.119 122.078 383.195C122.037 383.271 122.012 383.354 122.003 383.44L120.986 391.555C120.961 391.982 121.105 392.402 121.388 392.723C121.671 393.044 122.068 393.24 122.495 393.27C126.084 393.441 127.81 393.338 132.336 393.59C135.114 393.75 140.589 394.344 144.429 393.967C148.269 393.59 147.789 389.818 146.132 389.635C142.212 389.189 136.988 386.309 134.554 384.114C134.119 383.749 133.577 383.536 133.01 383.509Z" fill="#2E353A"/>
<path opacity="0.2" d="M135.902 372.901L134.691 380.479L124.324 378.525L125.158 369.952L135.902 372.901Z" fill="black"/>
<path d="M148.212 315.329C143.515 309.134 131.365 305.99 121.592 304.425L118.3 328.942C124.324 330.188 126.827 333.514 127.158 334.897C128.747 341.458 121.158 375.667 121.158 375.667L136.942 379.473C136.942 379.473 156.591 326.381 148.212 315.329Z" fill="#2E353A"/>
<path opacity="0.2" d="M148.212 315.329C143.515 309.134 131.365 305.99 121.592 304.425L118.3 328.942C124.324 330.188 126.827 333.514 127.158 334.897C128.747 341.458 121.158 375.667 121.158 375.667L136.942 379.473C136.942 379.473 156.591 326.381 148.212 315.329Z" fill="black"/>
<path d="M164.477 372.901L163.266 380.479L162.157 387.474H152.019L152.899 378.525L153.733 369.952L164.477 372.901Z" fill="#E4897B"/>
<path d="M161.585 383.509L151.298 382.857C151.213 382.847 151.126 382.855 151.043 382.879C150.961 382.904 150.884 382.944 150.817 382.998C150.75 383.052 150.694 383.119 150.653 383.195C150.612 383.271 150.587 383.354 150.578 383.44L149.561 391.555C149.536 391.982 149.68 392.402 149.963 392.723C150.245 393.044 150.643 393.24 151.07 393.27C154.659 393.441 156.385 393.338 160.911 393.59C163.689 393.75 169.163 394.344 173.004 393.967C176.844 393.59 176.364 389.818 174.707 389.635C170.787 389.189 165.563 386.309 163.128 384.114C162.694 383.749 162.152 383.536 161.585 383.509Z" fill="#2E353A"/>
<path opacity="0.2" d="M164.477 372.901L163.266 380.479L152.899 378.525L153.733 369.952L164.477 372.901Z" fill="black"/>
<path d="M114.825 220.175C114.825 225.616 114.185 230.782 110.836 233.205C115.468 237.159 120.641 240.43 126.198 242.92C132.142 238.703 129.399 235.217 129.399 235.217C124.198 232.371 125.821 225.707 127.444 221.501C127.444 221.501 126.164 219.432 118.872 219.409C115.637 219.352 114.825 220.175 114.825 220.175Z" fill="#E4897B"/>
<path d="M86.7651 298.538C86.7651 298.538 76.1352 328.599 106.265 328.599C136.394 328.599 138.828 316.849 136.28 303.019L86.7651 298.538Z" fill="#2E353A"/>
<path d="M136.28 302.893C136.28 302.893 168.398 304.242 176.787 315.295C185.177 326.347 165.517 379.474 165.517 379.474L149.733 375.667C149.733 375.667 158.408 339.446 155.139 334.76C151.87 330.073 134.108 329.788 110.105 328.53C86.1022 327.273 136.28 302.893 136.28 302.893Z" fill="#2E353A"/>
<path d="M107.876 232.313L110.871 225.284C110.871 225.284 127.959 225.901 133.148 233.685C138.337 241.468 107.876 232.313 107.876 232.313Z" fill="#A2D1F2"/>
<path d="M142.726 243.012C143.24 251.801 142.726 269.86 136.28 303.019L86.7651 298.538C87.0852 291.532 97.5664 267.517 95.3376 235.902C95.2551 234.782 95.3943 233.657 95.7474 232.591C96.1005 231.525 96.6604 230.539 97.3951 229.689C98.1299 228.84 99.025 228.144 100.029 227.641C101.033 227.138 102.127 226.838 103.247 226.758H103.533C105.967 226.667 120.815 231.056 127.787 232.107C130.473 232.599 133.079 233.25 135.297 233.879C137.332 234.437 139.143 235.617 140.475 237.255C141.807 238.892 142.594 240.905 142.726 243.012Z" fill="#A2D1F2"/>
<path opacity="0.2" d="M142.726 243.012C143.24 251.801 142.726 269.86 136.28 303.019L86.7651 298.538C87.0852 291.532 97.5664 267.517 95.3376 235.902C95.2551 234.782 95.3943 233.657 95.7474 232.591C96.1005 231.525 96.6604 230.539 97.3951 229.689C98.1299 228.84 99.025 228.144 100.029 227.641C101.033 227.138 102.127 226.838 103.247 226.758H103.533C105.967 226.667 120.815 231.056 127.787 232.107C130.473 232.599 133.079 233.25 135.297 233.879C137.332 234.437 139.143 235.617 140.475 237.255C141.807 238.892 142.594 240.905 142.726 243.012Z" fill="black"/>
<path d="M135.296 233.879C129.856 232.736 129.25 248.601 133.205 253.173C137.159 257.745 158.248 261.174 158.248 261.174L162.157 246.887C162.157 246.887 144.817 235.937 135.296 233.879Z" fill="#A2D1F2"/>
<path d="M112.688 219.615C112.688 219.615 105.727 217.706 102.493 202.767C99.2581 187.828 113.488 181.164 129.616 184.399C145.744 187.634 137.857 210.688 123.821 219.615C120.218 220.878 116.292 220.878 112.688 219.615Z" fill="#2E353A"/>
<path d="M130.302 207.488C130.688 209.34 131.768 210.975 133.319 212.059C135.296 213.362 136.828 211.374 136.748 208.813C136.657 206.527 135.525 203.041 133.319 202.79C131.113 202.538 129.753 205.064 130.302 207.488Z" fill="#E4897B"/>
<path d="M111.11 411.477H118.254L119.649 351.55L120.06 333.754H109.316L109.727 351.55L111.11 411.477Z" fill="#9D9D9D"/>
<path opacity="0.4" d="M111.11 411.477H118.254L119.649 351.55L120.06 333.754H109.316L109.727 351.55L111.11 411.477Z" fill="white"/>
<path opacity="0.2" d="M120.06 333.754L119.649 352.042H109.727L109.316 333.754H120.06Z" fill="black"/>
<path d="M152.441 411.477L147.926 335.011H138.588L144.909 411.477H152.441Z" fill="#9D9D9D"/>
<path opacity="0.5" d="M144.897 411.477H152.441L148.441 343.698L147.926 334.897H138.588L139.308 343.698L144.897 411.477Z" fill="white"/>
<path opacity="0.2" d="M138.588 334.897L139.308 344.041H148.441L147.926 334.897H138.588Z" fill="black"/>
<path d="M84.4562 411.477L90.7769 335.011H81.4387L76.9353 411.477H84.4562Z" fill="#9D9D9D"/>
<path opacity="0.5" d="M84.4791 411.477L90.0569 343.698L90.7769 334.897H81.4387L80.9244 343.698L76.9353 411.477H84.4791Z" fill="white"/>
<path opacity="0.2" d="M90.7769 334.897L90.0568 344.041H80.9243L81.4387 334.897H90.7769Z" fill="black"/>
<path d="M82.1586 324.987H147.218C147.968 324.987 148.711 325.135 149.405 325.422C150.098 325.709 150.728 326.13 151.259 326.661C151.789 327.192 152.21 327.822 152.498 328.515C152.785 329.208 152.933 329.952 152.933 330.702V338.326H76.4436V330.679C76.4497 329.167 77.0544 327.72 78.1255 326.653C79.1966 325.586 80.6468 324.987 82.1586 324.987Z" fill="#9D9D9D"/>
<path d="M106.449 251.456L100.787 252.232L112.005 334.128L117.667 333.352L106.449 251.456Z" fill="#9D9D9D"/>
<path d="M71.0122 251.453L65.3501 252.228L76.5685 334.125L82.2306 333.349L71.0122 251.453Z" fill="#9D9D9D"/>
<g opacity="0.4">
<path opacity="0.4" d="M106.448 251.456L100.786 252.231L112.005 334.128L117.667 333.352L106.448 251.456Z" fill="white"/>
</g>
<g opacity="0.4">
<path opacity="0.4" d="M71.0122 251.453L65.3501 252.228L76.5685 334.125L82.2306 333.349L71.0122 251.453Z" fill="white"/>
</g>
<path d="M154.293 331.674H75.0721C73.8032 331.674 72.7747 332.702 72.7747 333.971V336.051C72.7747 337.32 73.8032 338.349 75.0721 338.349H154.293C155.562 338.349 156.59 337.32 156.59 336.051V333.971C156.59 332.702 155.562 331.674 154.293 331.674Z" fill="#9D9D9D"/>
<path opacity="0.6" d="M154.293 331.674H75.0721C73.8032 331.674 72.7747 332.702 72.7747 333.971V336.051C72.7747 337.32 73.8032 338.349 75.0721 338.349H154.293C155.562 338.349 156.59 337.32 156.59 336.051V333.971C156.59 332.702 155.562 331.674 154.293 331.674Z" fill="white"/>
<path d="M114.357 279.222H63.5051L59.436 247.492H110.288L114.357 279.222Z" fill="#9D9D9D"/>
<path opacity="0.6" d="M114.357 279.222H63.5051L59.436 247.492H110.288L114.357 279.222Z" fill="white"/>
<defs>
<linearGradient id="paint0_linear" x1="366.614" y1="15.8594" x2="366.614" y2="414.192" gradientUnits="userSpaceOnUse">
<stop stop-color="white" stop-opacity="0.33"/>
<stop offset="1" stop-color="white" stop-opacity="0"/>
</linearGradient>
</defs>
</svg>
